<svg xmlns="http://www.w3.org/2000/svg" viewBox="0 0 980 980" fill="none" shape-rendering="auto"><metadata xmlns:rdf="http://www.w3.org/1999/02/22-rdf-syntax-ns#" xmlns:xsi="http://www.w3.org/2001/XMLSchema-instance" xmlns:dc="http://purl.org/dc/elements/1.1/" xmlns:dcterms="http://purl.org/dc/terms/"><rdf:RDF><rdf:Description><dc:title>Lorelei</dc:title><dc:creator>Lisa Wischofsky</dc:creator><dc:source xsi:type="dcterms:URI">https://www.figma.com/community/file/1198749693280469639</dc:source><dcterms:license xsi:type="dcterms:URI">https://creativecommons.org/publicdomain/zero/1.0/</dcterms:license><dc:rights>Remix of „Lorelei” (https://www.figma.com/community/file/1198749693280469639) by „Lisa Wischofsky”, licensed under „CC0 1.0” (https://creativecommons.org/publicdomain/zero/1.0/)</dc:rights></rdf:Description></rdf:RDF></metadata><mask id="viewboxMask"><rect width="980" height="980" rx="0" ry="0" x="0" y="0" fill="#fff" /></mask><g mask="url(#viewboxMask)"><g transform="translate(98 98) scale(0.8)"><g transform="translate(10 -60)"><path fill-rule="evenodd" clip-rule="evenodd" d="M412 193c18-2 36 0 54 3h1c10 2 21 4 30 8 11-5 23-8 35-8a167 167 0 0 1 78 19 134 134 0 0 1 36 30v1l6 2 3 1c8 2 16 6 23 10 18 12 34 28 50 44 13 15 26 31 32 51 6 21 4 43 0 64l16 17a192 192 0 0 1 39 50c8 16 11 34 11 51s-5 34-14 49l-11 15-17 25c-6 14-5 28-3 42l1 9 1 13a533 533 0 0 0 17 41c6 18 8 36 1 54-6 13-16 22-27 30a323 323 0 0 1-48 25c-17 9-33 21-48 34a151 151 0 0 1-17 27l-5 4c-7 12-15 22-27 28-16 8-32 8-49 9-11 0-21-1-32-4-16-3-32-11-48-18-14-6-28-13-42-17-11-3-22-5-33-1-7 2-13 7-18 12l-9 7c-7 5-14 8-22 9-15 1-31-2-46-6-13-3-26-6-38-13l-9-5-11-7c-4-1-9 0-13 1l-21 9-11 5c-12 5-24 9-37 12a59 59 0 0 1-65-38c-4-11-4-22-1-33 1-9 5-17 9-26 4-8 8-16 10-25 1-6 0-13-3-19l-13-12c-5-4-10-7-14-12-6-10-8-21-7-32 0-17 4-35 12-51 5-10 13-17 20-26a167 167 0 0 0 23-31c-1-7-3-14-6-20a507 507 0 0 0-25-51c-7-16-7-34-4-52 3-15 8-30 15-43a443 443 0 0 1 44-71l16-22 2-3 4-8a227 227 0 0 1 110-129c29-16 62-26 95-28Zm310 127c9 10 18 22 22 36 5 14 5 29 4 44l-2-3a124 124 0 0 1-13-40c-2-13-6-25-11-37ZM145 477h-1c-3 13-6 26-6 40 0 9 3 19 7 27l10 20 15 30c2-19-2-38-11-55l-5-8c-3-7-7-14-9-22-3-10-2-22 0-32Zm639 247c3 8 6 16 7 24 2 11 1 22-4 31-4 11-14 18-23 24l-19 11a319 319 0 0 0-58 39c3-7 6-15 11-22s11-13 18-18l13-8 12-7c10-7 19-16 26-27 5-7 10-15 13-23l4-24Zm-639 46-4-1c6 6 11 13 13 22 2 11-1 21-5 32l-5 11c-5 10-9 19-9 30-3 24 19 48 43 48-10-2-20-7-27-14-7-8-10-19-10-30 2-12 7-22 12-33v-2l4-6c4-10 9-20 10-30 1-7 0-14-5-19-3-3-7-4-11-6l-6-2Z" fill="#000000"/><path d="M486 236c57-2 115 18 159 56a209 209 0 0 1 73 190c-1 4-1 8-4 12l-1-3v-33a215 215 0 0 0-172-206 235 235 0 0 0-270 153c-12 37-14 78-6 116 6-2 12-2 17-2 2 1 5 1 6 3s0 3-1 4l-12 4c-14 3-27 8-37 18a63 63 0 0 0-22 45c0 12 3 24 8 35 8 13 19 24 33 31 18 10 41 13 62 7 2-1 4-2 6-1s3 4 4 6l15 30a215 215 0 0 0 72 63c28 15 59 21 90 26 3 1 8 1 10 4 1 2 0 3-2 4l-11 1a231 231 0 0 1-147-62c5 18 8 36 8 54 0 12-2 23-6 34-5 10-11 18-19 26a196 196 0 0 1-60 43c-1-1 1-2 2-3l17-14c13-12 25-23 35-38a93 93 0 0 0 17-65l-4-39-2-10-12-17c-5-10-11-20-13-31a93 93 0 0 1-96-31 81 81 0 0 1-19-51c0-12 3-23 8-34 9-16 23-29 40-36-8-31-8-62-3-93 8-40 26-77 51-108 45-54 115-87 186-88Z" fill="#000"/><path d="M541 252a214 214 0 0 1 172 206v33c-1 5-2 10-1 15-2 2-3 3-3 5-3 18-1 37 1 55 4 29 6 59 2 88-3 28-13 56-30 79-16 21-38 34-62 43-15 6-30 9-45 13-11 2-22 4-32 8 1 2 4 1 6 2 12 1 24-1 36-2-5 8-8 17-9 26-2 10 2 19 9 26 6 7 15 11 24 14 5 2 11 3 17 3 7 9 13 18 14 30 2 12-1 24-8 34-9 14-22 23-37 30-18 9-38 15-57 18a352 352 0 0 1-192-23c-18-10-38-23-48-42-4-7-8-16-6-24 18-10 33-23 47-38 8-8 14-16 19-26 4-11 6-22 6-34 0-18-3-36-8-54a235 235 0 0 0 147 62l11-1c2-1 3-2 2-4-2-3-7-3-10-4-31-5-62-11-90-26-18-10-36-22-50-37-8-8-16-17-22-26l-15-30c-1-2-2-5-4-6s-4 0-6 1a82 82 0 0 1-95-38c-5-11-8-23-8-35 1-17 9-34 22-45 10-10 23-15 37-18l12-4c1-1 2-2 1-4s-4-2-6-3c-5 0-11 0-17 2-8-38-6-79 6-116a236 236 0 0 1 270-153Z" fill="#ffffff"/><path d="m712 506 3 3 1 13 3 45c3 20 5 40 5 60 0 16-1 32-5 47-6 28-20 56-40 76a174 174 0 0 1-88 46c-1 9-4 16-4 25-1 6 2 10 5 15 8 8 18 14 28 19l18 9c-3 3-8 1-12 2-6 0-12-1-17-3-9-3-18-7-24-14-7-7-11-16-9-26 1-9 4-18 9-26-12 1-24 3-36 2-2-1-5 0-6-2 10-4 21-6 32-8 15-4 30-7 45-13 24-9 46-22 62-43 17-23 27-51 30-79 4-29 2-59-2-88-2-18-4-37-1-55 0-2 1-3 3-5ZM262 566c6 0 12 1 15 6 2 3 2 7 1 10-3 8-9 14-11 22-1 4 0 7 3 9 7 5 16 7 24 10l-2 2h-11c-6-1-12-2-17-5-5-4-9-11-7-18 2-9 9-15 12-23-7-4-14-2-20-8 3-4 8-6 13-5Z" fill="#000"/><path d="M670 463c7 1 14 4 18 10 6 7 7 15 8 24 0 4-1 9-3 12-3 4-9 4-12 0-2-3-2-8-3-12 0-7-3-15-10-18 10 15 11 33 7 50-2 9-6 16-13 22-4 4-11 6-17 4-6-1-10-6-13-11-4-8-6-16-6-25l-5 14c-1 3-2 6-5 9-3-3-3-6-4-10a83 83 0 0 1 34-61c7-5 15-8 24-8ZM455 468c14 0 29 5 40 14 14 10 24 25 28 42v14c-1 1-2 2-4 1a163 163 0 0 0-17-27c1 14-2 28-11 39-6 8-15 14-26 15-11 0-21-7-27-16-8-12-9-27-6-41 2-9 7-17 13-23l-13 5c-6 5-13 9-18 16l-5 6c-3 4-9 4-12 0-3-3-3-8-1-12 6-8 13-16 22-22 11-8 24-11 37-11Z" fill="#000000"/><path d="M659 498c1 7-1 13-3 20l-5 9c-1 2-4 2-5 1l-4-7c-3-6-5-13-4-19 0-3 2-4 5-4 3 1 4 3 5 5 1-2 2-6 4-7 2-2 6-1 7 2ZM475 500c4 0 6 3 7 6 1 8-2 14-4 22 0 4-2 8-6 11-2 1-4 0-5-2l-10-15-3-8c-1-4-1-8 2-12 2-2 5-2 8 0l5 6c1-4 2-7 6-8Z" fill="#fff"/><path d="M533 358c6 2 9 8 10 14 0 8-3 16-7 22-3 3-7 4-10 1-4-3-2-10-2-15l-13 10c-6 4-13 7-20 9-9 4-19 5-30 8l-25 8c-8 3-15 8-22 12l-25 17c-5 3-8 7-11 12-2-4-1-8 1-11a401 401 0 0 1 35-29c16-13 36-21 55-28l28-11c8-4 14-11 21-16 5-2 10-4 15-3ZM626 376l6 7c17 7 33 7 49 16 4 2 7 6 9 10s1 8-2 12l-16-6c-12-6-24-7-36-11-7-3-14-4-19-10-4 8-4 17-8 26-1 1-1 4-4 3l-1-8 2-11c1-8 4-16 7-23 2-6 8-8 13-5Z" fill="#000000"/><path d="M609 602c1 9-4 16-9 23-4 3-9 6-15 6s-13-3-19-5c-4-2-8-3-11-6l5-4c9-1 17 3 25 4 4 0 7-3 9-6 5-5 9-10 15-12Z" fill="#000000"/><path d="M649 656c8 0 17 1 25 3 3 1 7 2 8 6 1 3-2 6-5 6-6 0-11-2-17-3-11-2-24 0-35 1l-45 4h-26c-19 1-38 2-56 7l-10 4c-4 4-8 8-14 11h-5c-2-1-3-4-2-6 2-6 6-11 11-15 5-3 10-4 16-5l25-2c14-1 27-3 41-3l34-3c19-2 36-5 55-5Z" fill="#000000"/><path fill-rule="evenodd" clip-rule="evenodd" d="M686 525h37a1149 1149 0 0 0 13 1c7 0 13 1 17 6 3 3 3 7 0 9-4 4-10 4-16 3 2 11 1 21-5 31-4 6-10 9-17 12-14 7-30 11-45 12-9 1-17 0-24-2-7-1-15-3-21-7a35 35 0 0 1-14-24l-2-4-11-2h-1a81 81 0 0 0-23 1h-4l-15 2-2 3-2 4-1 4v3c-2 10-8 18-16 23-9 6-21 9-32 11a183 183 0 0 1-83-10c-6-4-12-8-15-15-4-8-4-17-2-25h-4l-9-1c-3-1-4-3-3-6 2-4 8-6 12-8 6-2 12-4 19-4l55-7c24-3 48-3 72 1l9 4 7 3h3l9 2 23-1 4-1c3 1 5-2 8-4l5-4c7-3 15-4 22-5l6-1 32-3 14-1Zm38 18v8c0 4 0 10-2 14-1 4-4 6-7 8-13 6-27 10-42 12-11 2-22 0-33-3-9-2-16-9-18-18-2-4-2-9-2-13v-3a1133 1133 0 0 0 37-2l17-2a258 258 0 0 1 40-1h10Zm-197 8h-10c-13-1-27 0-40 1l-19 2a1435 1435 0 0 1-41 5l1 8 1 11c1 6 6 8 10 11a86 86 0 0 0 29 8c21 3 41 4 61-3 8-3 15-7 19-14 4-9 4-20 3-29h-14Z" fill="#000000"/><path fill-rule="evenodd" clip-rule="evenodd" d="M468 196a218 218 0 0 0-234 122 323 323 0 0 0-25 186l4 19c1 3 3 6 5 6l4 1h1c5 6 12 10 20 12 12 4 26 4 38 2-3 16 1 34 7 49 5 12 13 25 23 34a67 67 0 0 0 51 14c5-1 9-4 13-8v-1l2-5h-3c-3 0-5 0-8-2-11-6-19-17-25-28-10-20-15-43-15-65 13-6 24-16 33-27l7-5 4-2c9-6 17-14 25-22 17-20 30-43 39-67a443 443 0 0 0 16-63c4-20 8-41 17-60a185 185 0 0 1 34 1l12 1c3-1 4-4 4-7 0-5-3-10-6-14a272 272 0 0 1 45 26c2 2 5 3 7 2a172 172 0 0 0 26-13l6-4 14-7c-3 5-7 12-7 18 0 3 3 5 6 5 11 1 21-1 32-4l4-1c4-1 8 2 11 4 9 9 15 22 16 34a118 118 0 0 1 0 35l-1 11-1 15-2 37c2 16 8 32 20 43 9 9 22 12 34 9 6-2 12-6 16-10 5-4 7-9 7-16l-11 4-14 4v-8c4-3 8-7 10-11l-2-9-1-7-3-23-3-25-1-7c-2-14-4-27-9-41a162 162 0 0 0-42-68c-6-4-11-7-18-9a136 136 0 0 0-39-36c-17-8-34-14-52-17-15-2-32-3-46 1l-16 5c-9-4-19-6-29-8Zm-20 115c3-8 5-17 10-25-14 1-27 3-41 6-7 13-14 27-18 41a232 232 0 0 0-10 71c-2 21-3 43-9 63 19-20 34-45 42-71 6-15 10-30 14-46 4-13 7-26 12-38v-1Z" fill="#000000"/></g><g transform="translate(10 -60)"></g></g></g></svg>